<?xml version="1.0" encoding="utf-8"?>
<!-- Generator: Adobe Illustrator 16.0.0, SVG Export Plug-In . SVG Version: 6.00 Build 0)  -->
<!DOCTYPE svg PUBLIC "-//W3C//DTD SVG 1.1//EN" "http://www.w3.org/Graphics/SVG/1.1/DTD/svg11.dtd">
<svg version="1.1" id="Layer_1" xmlns="http://www.w3.org/2000/svg" xmlns:xlink="http://www.w3.org/1999/xlink" x="0px" y="0px"
	 width="595.279px" height="595.279px" viewBox="0 0 595.279 595.279" enable-background="new 0 0 595.279 595.279"
	 xml:space="preserve">
<path opacity="0.1" fill="#0B0C0C" d="M297.64,60c32.107,0,63.223,6.274,92.481,18.649c28.291,11.966,53.711,29.109,75.557,50.953
	c21.844,21.844,38.985,47.265,50.952,75.556c12.376,29.259,18.649,60.373,18.649,92.481s-6.273,63.223-18.649,92.482
	c-11.967,28.29-29.108,53.71-50.952,75.556c-21.846,21.844-47.266,38.985-75.557,50.952c-29.259,12.376-60.374,18.649-92.481,18.649
	s-63.223-6.273-92.481-18.649c-28.291-11.967-53.712-29.108-75.556-50.952c-21.844-21.845-38.986-47.266-50.953-75.556
	C66.275,360.863,60,329.748,60,297.64c0-32.107,6.274-63.223,18.649-92.481c11.967-28.291,29.109-53.712,50.953-75.556
	s47.265-38.986,75.556-50.953C234.417,66.275,265.532,60,297.64,60 M297.64,0C133.258,0,0,133.258,0,297.64
	s133.258,297.64,297.64,297.64s297.64-133.258,297.64-297.64S462.022,0,297.64,0L297.64,0z"/>
<path fill="#27A197" d="M297.64,0v60c32.107,0,63.223,6.274,92.481,18.649c28.291,11.966,53.711,29.109,75.557,50.953
	c21.844,21.844,38.985,47.265,50.952,75.556c12.376,29.259,18.649,60.373,18.649,92.481h60C595.28,133.258,462.022,0,297.64,0z"/>
</svg>
